<svg xmlns="http://www.w3.org/2000/svg" data-name="Layer 1" viewBox="0 0 100 125" x="0px" y="0px"><title>Instagram</title><path d="M63.71,33.48a3.083,3.083,0,1,0,3.082,3.083A3.083,3.083,0,0,0,63.71,33.48Z"/><circle cx="50.054" cy="49.967" r="10.942" transform="translate(-19.768 38.698) rotate(-35.782)"/><path d="M50,10.371A39.629,39.629,0,1,0,89.629,50,39.628,39.628,0,0,0,50,10.371ZM72.237,62.194a10.1,10.1,0,0,1-10.1,10.1H37.786a10.1,10.1,0,0,1-10.1-10.1V37.843a10.1,10.1,0,0,1,10.1-10.1H62.137a10.1,10.1,0,0,1,10.1,10.1Z"/><text x="0" y="115" fill="#000000" font-size="5px" font-weight="bold" font-family="'Helvetica Neue', Helvetica, Arial-Unicode, Arial, Sans-serif">Created by Anhar Ismail</text><text x="0" y="120" fill="#000000" font-size="5px" font-weight="bold" font-family="'Helvetica Neue', Helvetica, Arial-Unicode, Arial, Sans-serif">from the Noun Project</text></svg>